<?xml version="1.0" encoding="utf-8"?>
<!-- Generator: Adobe Illustrator 16.0.0, SVG Export Plug-In . SVG Version: 6.00 Build 0)  -->
<!DOCTYPE svg PUBLIC "-//W3C//DTD SVG 1.1//EN" "http://www.w3.org/Graphics/SVG/1.1/DTD/svg11.dtd">
<svg version="1.1"
	 id="svg2" xmlns:dc="http://purl.org/dc/elements/1.1/" xmlns:cc="http://creativecommons.org/ns#" xmlns:rdf="http://www.w3.org/1999/02/22-rdf-syntax-ns#" xmlns:svg="http://www.w3.org/2000/svg" xmlns:sodipodi="http://sodipodi.sourceforge.net/DTD/sodipodi-0.dtd" xmlns:inkscape="http://www.inkscape.org/namespaces/inkscape" inkscape:version="0.91 r13725" sodipodi:docname="favicon.svg"
	 xmlns="http://www.w3.org/2000/svg" xmlns:xlink="http://www.w3.org/1999/xlink" x="0px" y="0px" width="192px" height="187.157px"
	 viewBox="-3.574 0 192 187.157" enable-background="new -3.574 0 192 187.157" xml:space="preserve">
<sodipodi:namedview  units="in" showgrid="false" inkscape:cy="145.93332" bordercolor="#666666" fit-margin-left="0" inkscape:zoom="0.98994949" inkscape:cx="-11.553459" pagecolor="#ffffff" borderopacity="1.0" fit-margin-top="0" id="base" inkscape:window-height="705" inkscape:window-x="-8" inkscape:window-width="1366" inkscape:window-y="-8" inkscape:pageshadow="2" inkscape:document-units="px" inkscape:snap-path-clip="true" inkscape:pageopacity="0.0" inkscape:current-layer="layer1" fit-margin-bottom="0" inkscape:window-maximized="1" fit-margin-right="0">
	</sodipodi:namedview>
<g id="layer2" transform="translate(-41.337804,-30.695227)" inkscape:label="Capa 2" inkscape:groupmode="layer">
</g>
<g id="layer1" transform="translate(-230.13595,-106.13966)" inkscape:label="Capa 1" inkscape:groupmode="layer" opacity="0.97">
	<path id="path4136" inkscape:connector-curvature="0" fill="#FFFF00" stroke="#FFFF00" stroke-width="26.1473" d="M321.332,123.743
		c-42.777,0.001-77.455,34.678-77.455,77.457s34.678,77.456,77.455,77.456c42.777,0,77.457-34.678,77.457-77.455V201.2
		C398.789,158.422,364.111,123.743,321.332,123.743L321.332,123.743z"/>
	<g id="flowRoot4139" transform="matrix(3.1586147,0,-1.0502381,2.6636011,107.27136,-130.87702)">
		<path id="path4266" inkscape:connector-curvature="0" fill="#0075FF" stroke="#0064FF" stroke-width="2.1192" d="M86.579,134.733
			c1.499,0.887,5.11,1.84,8.79,1.84c8.994,0,15.194-5.519,15.194-13.899c0-4.838-2.249-9.471-8.313-13.15
			c-4.974-2.998-6.337-4.429-6.336-7.154c0-2.453,1.839-4.769,5.655-4.769c2.589,0,4.565,0.749,5.859,1.567l1.431-7.7
			c-1.363-0.818-4.224-1.635-7.222-1.635c-9.607,0-14.513,6.132-14.513,13.49c0.001,4.157,2.385,8.994,8.654,12.811
			c3.884,2.521,5.928,4.156,5.928,7.495c0,2.998-2.043,5.179-6.269,5.179c-2.589,0-5.722-0.749-7.563-1.772L86.579,134.733
			L86.579,134.733z"/>
	</g>
	<g id="flowRoot4139-74" transform="matrix(2.8521135,0,-0.94832659,2.6691755,212.43682,-3.1316354)" opacity="0.97">
		<path id="path4255" inkscape:connector-curvature="0" fill="#0075FF" stroke="#0064FF" stroke-width="2.1192" d="M71.184,109.757
			c1.94,0.258,4.656,0.452,7.889,0.452c7.307,0,11.704-1.551,14.291-4.398c2.069-2.134,3.234-4.914,3.233-8.536
			c0-4.786-2.716-8.987-7.759-10.41l0-0.258c4.332-1.875,6.337-5.627,6.336-9.507c0.001-3.039-0.97-5.949-3.298-7.889
			c-3.039-2.586-6.983-3.104-11.058-3.104c-3.686,0-7.048,0.258-9.635,0.841L71.184,109.757L71.184,109.757z M79.655,72.704
			c0.517-0.194,1.293-0.258,2.199-0.258c3.492,0,4.979,2.458,4.979,5.626c-0.001,3.557-2.328,6.144-5.367,6.144h-1.811
			L79.655,72.704z M79.655,90.487h1.811c3.362,0.064,6.337,2.328,6.337,6.66c0,4.463-2.846,6.531-6.272,6.531
			c-0.776,0-1.358,0-1.876-0.13L79.655,90.487z"/>
	</g>
</g>
</svg>
