<?xml version="1.0" encoding="UTF-8" standalone="no"?>
<!-- Generator: Adobe Illustrator 16.0.0, SVG Export Plug-In . SVG Version: 6.00 Build 0)  -->

<svg
   xmlns:dc="http://purl.org/dc/elements/1.1/"
   xmlns:cc="http://creativecommons.org/ns#"
   xmlns:rdf="http://www.w3.org/1999/02/22-rdf-syntax-ns#"
   xmlns:svg="http://www.w3.org/2000/svg"
   xmlns="http://www.w3.org/2000/svg"
   xmlns:sodipodi="http://sodipodi.sourceforge.net/DTD/sodipodi-0.dtd"
   xmlns:inkscape="http://www.inkscape.org/namespaces/inkscape"
   version="1.1"
   id="svg2"
   sodipodi:docname="logo.svg"
   inkscape:version="0.91 r13725"
   x="0px"
   y="0px"
   width="297px"
   height="297px"
   viewBox="-32.769 -34.518 297 297"
   enable-background="new -32.769 -34.518 297 297"
   xml:space="preserve"><metadata
     id="metadata22"><rdf:RDF><cc:Work
         rdf:about=""><dc:format>image/svg+xml</dc:format><dc:type
           rdf:resource="http://purl.org/dc/dcmitype/StillImage" /></cc:Work></rdf:RDF></metadata><defs
     id="defs20" /><sodipodi:namedview
     id="base"
     inkscape:current-layer="layer1"
     inkscape:snap-path-clip="true"
     fit-margin-right="0"
     inkscape:window-maximized="1"
     fit-margin-bottom="0"
     inkscape:pageopacity="0.0"
     inkscape:document-units="px"
     inkscape:pageshadow="2"
     inkscape:window-y="-8"
     inkscape:window-width="1366"
     inkscape:window-x="-8"
     inkscape:window-height="705"
     borderopacity="1.0"
     fit-margin-top="0"
     pagecolor="#ffffff"
     inkscape:cx="29.784349"
     inkscape:zoom="0.98994949"
     fit-margin-left="0"
     bordercolor="#666666"
     inkscape:cy="176.57597"
     showgrid="false" /><g
     inkscape:groupmode="layer"
     id="layer2"
     inkscape:label="Capa 2"><ellipse
       style="display:inline;opacity:0.97000002;fill:#000000;fill-opacity:1;fill-rule:evenodd;stroke:#000000;stroke-width:23.62792015;stroke-miterlimit:4;stroke-dasharray:none;stroke-dashoffset:0;stroke-opacity:1"
       id="path4150"
       cx="118.46192"
       cy="114.99971"
       rx="137.9559"
       ry="136.04648" /></g><g
     id="layer1"
     transform="translate(-188.79815,-75.444422)"
     inkscape:label="Capa 1"
     inkscape:groupmode="layer"
     style="display:inline;opacity:0.97000002"><path
       id="path4136"
       inkscape:connector-curvature="0"
       d="m 307.25907,88.026129 c -56.563,0.001 -102.416,45.853991 -102.416,102.417991 0,56.564 45.853,102.417 102.416,102.418 56.563,0 102.418,-45.854 102.418,-102.417 l 0,-0.001 c 0,-56.563 -45.854,-102.417991 -102.418,-102.417991 l 0,0 z"
       style="fill:#ffffff;stroke:#ffff00;stroke-width:27.6590004" /><g
       id="flowRoot4139"
       transform="matrix(0.93433389,0,-0.31066565,1.0484233,191.20463,40.122812)"><path
         id="path4266"
         d="m 75.12,133.21 c 1.873,1.108 6.388,2.3 10.987,2.3 11.243,0 18.993,-6.899 18.993,-17.374 0,-6.047 -2.811,-11.839 -10.391,-16.438 -6.217,-3.747 -7.921,-5.536 -7.92,-8.943 0,-3.066 2.299,-5.961 7.069,-5.961 3.236,0 5.706,0.936 7.324,1.959 l 1.788,-9.625 c -1.703,-1.022 -5.28,-2.044 -9.027,-2.044 -12.009,0 -18.141,7.665 -18.142,16.863 0.001,5.196 2.981,11.243 10.817,16.013 4.855,3.151 7.41,5.195 7.41,9.369 0,3.747 -2.554,6.473 -7.836,6.473 -3.236,0 -7.153,-0.937 -9.453,-2.214 l -1.619,9.622 z"
         inkscape:connector-curvature="0"
         style="fill:#0075ff;stroke:#0064ff;stroke-width:2.11919999" /><path
         id="path4268"
         d="m 131.633,126.86 c -1.085,0.34 -2.78,0.679 -4.272,0.679 -5.426,0 -9.562,-4.273 -9.562,-15.191 0,-11.326 4.544,-15.665 9.562,-15.665 1.967,0 3.119,0.407 4.137,0.881 l 1.492,-7.459 c -0.882,-0.611 -3.051,-1.221 -6.171,-1.221 -8.884,0 -18.446,6.714 -18.446,23.939 10e-4,12.953 5.561,22.582 17.226,22.582 3.119,0 5.628,-0.475 6.917,-1.085 l -0.883,-7.46 0,0 z"
         inkscape:connector-curvature="0"
         style="fill:#0075ff;stroke:#0064ff;stroke-width:2.11919999" /><path
         id="path4270"
         d="m 137.366,134.998 8.884,0 0,-18.243 1.289,0 c 2.984,0 4.409,1.628 5.222,7.324 0.679,5.019 1.696,9.63 2.238,10.919 l 9.291,0 c -0.813,-1.695 -2.035,-7.324 -2.916,-12.41 -0.881,-4.883 -2.442,-7.799 -5.561,-9.02 l 0,-0.135 c 4.679,-2.17 7.053,-6.578 7.053,-11.461 0,-3.934 -0.814,-6.985 -3.595,-9.494 -2.984,-2.712 -7.324,-3.391 -12.207,-3.391 -3.391,0 -6.917,0.339 -9.698,0.882 l 0,45.029 z m 8.885,-38.723 c 0.474,-0.204 1.356,-0.271 2.102,-0.271 4.001,0.135 5.561,2.915 5.561,6.781 0,4.002 -2.237,7.121 -6.103,7.121 l -1.56,0 0,-13.631 z"
         inkscape:connector-curvature="0"
         style="fill:#0075ff;stroke:#0064ff;stroke-width:2.11919999" /><path
         id="path4272"
         d="m 169.016,89.29 0.001,28.211 c 0,11.461 3.73,18.04 13.292,18.04 8.816,0 13.224,-6.375 13.224,-18.108 l 0,-28.143 -8.884,0 0,29.703 c -0.001,6.917 -1.831,8.748 -4.409,8.748 -2.306,0 -4.34,-2.034 -4.34,-8.748 l 0,-29.703 -8.884,0 z"
         inkscape:connector-curvature="0"
         style="fill:#0075ff;stroke:#0064ff;stroke-width:2.11919999" /><path
         id="path4274"
         d="m 238.222,134.998 9.457,0 -3.314,-54.479 -11.154,0 -4.284,19.723 c -1.455,6.87 -2.667,13.013 -3.476,19.075 l -0.161,0 c -0.97,-6.143 -2.344,-12.205 -3.88,-19.075 l -4.365,-19.723 -11.155,0 -3.96,54.479 9.133,0 0.889,-18.914 c 0.323,-5.415 0.647,-12.286 0.808,-18.187 l 0.242,0 c 0.808,5.901 2.263,12.69 3.314,17.055 l 4.527,19.157 7.517,0 4.688,-19.481 c 1.051,-4.203 2.506,-10.912 3.476,-16.732 l 0.242,0 c -0.162,5.82 0.243,12.852 0.485,18.026 l 0.971,19.076 z"
         inkscape:connector-curvature="0"
         style="fill:#0075ff;stroke:#0064ff;stroke-width:2.11919999" /></g><g
       id="flowRoot4139-74"
       transform="matrix(0.93433389,0,-0.31066565,1.0484233,197.06234,131.42386)"
       style="opacity:0.97000002"><path
         id="path4255"
         d="m 66.797,114.029 c 2.425,0.323 5.82,0.565 9.861,0.565 9.134,0 14.63,-1.939 17.863,-5.497 2.586,-2.667 4.042,-6.143 4.042,-10.669 0,-5.982 -3.395,-11.235 -9.699,-13.013 l 0,-0.323 c 5.415,-2.344 7.921,-7.033 7.92,-11.883 10e-4,-3.798 -1.212,-7.436 -4.122,-9.861 -3.799,-3.233 -8.729,-3.88 -13.822,-3.88 -4.607,0 -8.81,0.323 -12.044,1.051 l 10e-4,53.51 0,0 z M 77.386,67.713 c 0.646,-0.242 1.616,-0.323 2.748,-0.323 4.365,0 6.224,3.072 6.224,7.033 -0.001,4.446 -2.91,7.679 -6.709,7.679 l -2.263,0 0,-14.389 z m 0,22.228 2.264,0 c 4.203,0.081 7.921,2.91 7.921,8.325 0,5.578 -3.557,8.164 -7.84,8.164 -0.97,0 -1.697,0 -2.345,-0.162 l 0,-16.327 z"
         inkscape:connector-curvature="0"
         style="fill:#0075ff;stroke:#0064ff;stroke-width:2.11919999" /><path
         id="path4257"
         d="m 117.853,67.94 c -10.104,0 -15.055,10.783 -15.054,23.26 -0.001,12.546 4.068,23.532 14.445,23.532 8.68,0 14.783,-6.985 14.783,-24.21 0,-10.443 -3.12,-22.582 -14.174,-22.582 l 0,0 z m -0.338,7.73 c 4.001,0 5.221,7.257 5.222,15.259 -10e-4,9.29 -1.425,16.072 -5.155,16.072 -3.593,0 -5.56,-5.29 -5.56,-15.665 0,-9.833 1.966,-15.666 5.493,-15.666 l 0,0 z"
         inkscape:connector-curvature="0"
         style="fill:#0075ff;stroke:#0064ff;stroke-width:2.11919999" /><path
         id="path4259"
         d="m 152.023,103.746 1.966,10.444 8.612,0 -8.884,-45.708 -10.647,0 -9.901,45.708 8.612,0 2.035,-10.444 8.207,0 z m -7.324,-6.917 1.695,-9.494 c 0.475,-2.644 1.153,-7.392 1.628,-10.444 l 0.203,0 c 0.407,3.051 1.017,7.595 1.492,10.376 l 1.493,9.562 -6.511,0 0,0 z"
         inkscape:connector-curvature="0"
         style="fill:#0075ff;stroke:#0064ff;stroke-width:2.11919999" /><path
         id="path4261"
         d="m 167.686,114.19 8.884,0 0,-18.242 1.289,0 c 2.984,0 4.408,1.627 5.222,7.324 0.679,5.018 1.696,9.629 2.238,10.918 l 9.291,0 c -0.813,-1.695 -2.035,-7.324 -2.916,-12.41 -0.881,-4.883 -2.442,-7.799 -5.561,-9.019 l 0,-0.136 c 4.679,-2.17 7.053,-6.578 7.053,-11.461 0,-3.934 -0.814,-6.985 -3.595,-9.494 -2.984,-2.712 -7.323,-3.391 -12.206,-3.391 -3.391,0 -6.917,0.339 -9.698,0.881 l -0.001,45.03 0,0 z m 8.885,-38.723 c 0.474,-0.203 1.356,-0.271 2.102,-0.271 4.001,0.135 5.561,2.915 5.561,6.781 0,4.002 -2.237,7.121 -6.103,7.121 l -1.56,0 0,-13.631 0,0 z"
         inkscape:connector-curvature="0"
         style="fill:#0075ff;stroke:#0064ff;stroke-width:2.11919999" /><path
         id="path4263"
         d="m 200.363,114.029 c 2.101,0.242 5.415,0.565 8.729,0.565 7.598,0 13.014,-1.697 16.651,-5.253 4.769,-4.204 7.598,-12.044 7.598,-23.037 -0.001,-10.589 -2.425,-17.782 -7.113,-21.985 -3.476,-3.233 -8.245,-4.85 -15.116,-4.85 -4.204,0 -8.083,0.404 -10.751,1.051 l 0.002,53.509 0,0 z m 10.588,-45.831 c 0.647,-0.242 1.374,-0.242 2.102,-0.242 6.385,0 9.295,6.789 9.295,17.944 0,15.035 -4.445,20.046 -9.537,20.046 -0.566,0 -1.374,0 -1.86,-0.161 l 0,-37.587 z"
         inkscape:connector-curvature="0"
         style="fill:#0075ff;stroke:#0064ff;stroke-width:2.11919999" /></g></g></svg>