<?xml version="1.0" encoding="utf-8"?>
<!-- Generator: Adobe Illustrator 16.0.0, SVG Export Plug-In . SVG Version: 6.00 Build 0)  -->
<!DOCTYPE svg PUBLIC "-//W3C//DTD SVG 1.1//EN" "http://www.w3.org/Graphics/SVG/1.1/DTD/svg11.dtd">
<svg version="1.1" id="Capa_1" xmlns="http://www.w3.org/2000/svg" xmlns:xlink="http://www.w3.org/1999/xlink" x="0px" y="0px"
	 width="252px" height="140.5px" viewBox="0 0 252 140.5" enable-background="new 0 0 252 140.5" xml:space="preserve">
<g>
	<rect x="4.929" y="5.571" fill="#FFFFFF" width="242.857" height="130"/>
	<g>
		<path fill="#9A999E" d="M247.786,133.071c-46.28,0-92.561,0-138.841,0c-34.672,0-69.344,0-104.017,0
			c0.833,0.833,1.667,1.667,2.5,2.5c0-43.333,0-86.667,0-130c-0.833,0.833-1.667,1.667-2.5,2.5c46.28,0,92.561,0,138.841,0
			c34.672,0,69.345,0,104.017,0c-0.833-0.833-1.667-1.667-2.5-2.5c0,43.333,0,86.667,0,130c0,3.224,5,3.224,5,0
			c0-43.333,0-86.667,0-130c0-1.363-1.138-2.5-2.5-2.5c-46.28,0-92.561,0-138.841,0c-34.672,0-69.344,0-104.017,0
			c-1.363,0-2.5,1.137-2.5,2.5c0,43.333,0,86.667,0,130c0,1.363,1.137,2.5,2.5,2.5c46.28,0,92.561,0,138.841,0
			c34.672,0,69.345,0,104.017,0C251.011,138.071,251.011,133.071,247.786,133.071z"/>
	</g>
</g>
<g>
	<g>
		<path fill="#3C2C17" d="M78.975,29c0,28.833,0,57.667,0,86.5c0,2.828,0.05,2.828,0.05,0c0-28.833,0-57.667,0-86.5
			C79.025,26.172,78.975,26.172,78.975,29L78.975,29z"/>
	</g>
</g>
<g>
	<g>
		<path fill="#3C2C17" d="M164.475,29c0,28.833,0,57.667,0,86.5c0,2.828,0.051,2.828,0.051,0c0-28.833,0-57.667,0-86.5
			C164.525,26.172,164.475,26.172,164.475,29L164.475,29z"/>
	</g>
</g>
<text transform="matrix(1 0 0 1 37.5 31.5)" fill="#354691" font-family="'Gabriola'" font-size="8">To do ...</text>
<text transform="matrix(1 0 0 1 102.5 31.5)" fill="#354691" font-family="'Gabriola'" font-size="8">... in progress ...</text>
<text transform="matrix(1 0 0 1 79 18.5)" fill="#354691" font-family="'KristenITC-Regular'" font-size="8">PROYECTO FINAL</text>
<text transform="matrix(1 0 0 1 189.5 31.5)" fill="#354691" font-family="'Gabriola'" font-size="8">... complete</text>
<rect x="25.5" y="48" fill="#F1E999" width="7.5" height="8"/>
<rect x="14.25" y="44" fill="#F1E999" width="7.5" height="8"/>
<rect x="14.25" y="55.5" fill="#F1E999" width="7.5" height="8"/>
<rect x="14.25" y="68.25" fill="#F1E999" width="7.5" height="8"/>
<rect x="14.25" y="76.25" fill="#F1E999" width="7.5" height="8"/>
<rect x="14.25" y="86.5" fill="#F1E999" width="7.5" height="8"/>
<rect x="25.5" y="86.5" fill="#F1E999" width="7.5" height="8"/>
<rect x="37.5" y="86.5" fill="#F1E999" width="7.5" height="8"/>
<rect x="50.75" y="86.5" fill="#F1E999" width="7.5" height="8"/>
<rect x="50.75" y="97" fill="#F1E999" width="7.5" height="8"/>
<rect x="37.5" y="97" fill="#F1E999" width="7.5" height="8"/>
<rect x="14.25" y="103" fill="#F1E999" width="7.5" height="8"/>
<rect x="37.5" y="44" fill="#F1E999" width="7.5" height="8"/>
<rect x="50.75" y="44" fill="#F1E999" width="7.5" height="8"/>
<rect x="41.25" y="59.5" fill="#F1E999" width="7.5" height="8"/>
<rect x="54.5" y="76.25" fill="#F1E999" width="7.5" height="8"/>
<rect x="33.75" y="72.25" fill="#F1E999" width="7.5" height="8"/>
<rect x="54.5" y="63.5" fill="#F1E999" width="7.5" height="8"/>
<rect x="21.75" y="59.5" fill="#F1E999" width="7.5" height="8"/>
<rect x="115.375" y="46.75" fill="#F1E999" width="7.5" height="8"/>
<rect x="104.125" y="42.75" fill="#F1E999" width="7.5" height="8"/>
<rect x="104.125" y="75" fill="#F1E999" width="7.5" height="8"/>
<rect x="115.375" y="85.25" fill="#F1E999" width="7.5" height="8"/>
<rect x="129.375" y="63.375" fill="#F1E999" width="7.5" height="8"/>
<rect x="129.375" y="73.875" fill="#F1E999" width="7.5" height="8"/>
<rect x="118" y="95.75" fill="#F1E999" width="7.5" height="8"/>
<rect x="104.125" y="101.75" fill="#F1E999" width="7.5" height="8"/>
<rect x="118" y="42.75" fill="#F1E999" width="7.5" height="8"/>
<rect x="131.25" y="42.75" fill="#F1E999" width="7.5" height="8"/>
<rect x="121.75" y="58.25" fill="#F1E999" width="7.5" height="8"/>
<rect x="133.125" y="53.125" fill="#F1E999" width="7.5" height="8"/>
<rect x="136.875" y="88" fill="#F1E999" width="7.5" height="8"/>
<rect x="111.625" y="58.25" fill="#F1E999" width="7.5" height="8"/>
<rect x="189.75" y="49.5" fill="#F1E999" width="7.5" height="8"/>
<rect x="178.5" y="45.5" fill="#F1E999" width="7.5" height="8"/>
<rect x="178.5" y="57" fill="#F1E999" width="7.5" height="8"/>
<rect x="178.5" y="69.75" fill="#F1E999" width="7.5" height="8"/>
<rect x="178.5" y="77.75" fill="#F1E999" width="7.5" height="8"/>
<rect x="178.5" y="88" fill="#F1E999" width="7.5" height="8"/>
<rect x="189.75" y="88" fill="#F1E999" width="7.5" height="8"/>
<rect x="201.75" y="88" fill="#F1E999" width="7.5" height="8"/>
<rect x="215" y="88" fill="#F1E999" width="7.5" height="8"/>
<rect x="215" y="98.5" fill="#F1E999" width="7.5" height="8"/>
<rect x="201.75" y="98.5" fill="#F1E999" width="7.5" height="8"/>
<rect x="178.5" y="104.5" fill="#F1E999" width="7.5" height="8"/>
<rect x="201.75" y="45.5" fill="#F1E999" width="7.5" height="8"/>
<rect x="215" y="45.5" fill="#F1E999" width="7.5" height="8"/>
<rect x="205.5" y="61" fill="#F1E999" width="7.5" height="8"/>
<rect x="218.75" y="77.75" fill="#F1E999" width="7.5" height="8"/>
<rect x="198" y="73.75" fill="#F1E999" width="7.5" height="8"/>
<rect x="218.75" y="65" fill="#F1E999" width="7.5" height="8"/>
<rect x="186" y="61" fill="#F1E999" width="7.5" height="8"/>
<rect x="206.125" y="43.5" fill="#F1E999" width="7.5" height="8"/>
<rect x="194.875" y="39.5" fill="#F1E999" width="7.5" height="8"/>
<rect x="194.875" y="51" fill="#F1E999" width="7.5" height="8"/>
<rect x="194.875" y="63.75" fill="#F1E999" width="7.5" height="8"/>
<rect x="194.875" y="71.75" fill="#F1E999" width="7.5" height="8"/>
<rect x="194.875" y="82" fill="#F1E999" width="7.5" height="8"/>
<rect x="206.125" y="82" fill="#F1E999" width="7.5" height="8"/>
<rect x="218.125" y="82" fill="#F1E999" width="7.5" height="8"/>
<rect x="231.375" y="82" fill="#F1E999" width="7.5" height="8"/>
<rect x="231.375" y="92.5" fill="#F1E999" width="7.5" height="8"/>
<rect x="218.125" y="92.5" fill="#F1E999" width="7.5" height="8"/>
<rect x="194.875" y="98.5" fill="#F1E999" width="7.5" height="8"/>
<rect x="218.125" y="39.5" fill="#F1E999" width="7.5" height="8"/>
<rect x="231.375" y="39.5" fill="#F1E999" width="7.5" height="8"/>
<rect x="221.875" y="55" fill="#F1E999" width="7.5" height="8"/>
<rect x="235.125" y="71.75" fill="#F1E999" width="7.5" height="8"/>
<rect x="214.375" y="67.75" fill="#F1E999" width="7.5" height="8"/>
<rect x="235.125" y="59" fill="#F1E999" width="7.5" height="8"/>
<rect x="202.375" y="55" fill="#F1E999" width="7.5" height="8"/>
</svg>
